<?xml version="1.0" standalone="no"?>
<!DOCTYPE svg PUBLIC "-//W3C//DTD SVG 20010904//EN"
        "http://www.w3.org/TR/2001/REC-SVG-20010904/DTD/svg10.dtd">
<svg version="1.0" xmlns="http://www.w3.org/2000/svg"
     width="1004.000000pt" height="1021.000000pt" viewBox="0 0 1004.000000 1021.000000"
     preserveAspectRatio="xMidYMid meet">

    <g transform="translate(0.000000,1021.000000) scale(0.100000,-0.100000)"
       fill="#000000" stroke="none">
        <path d="M1498 10204 c-3 -3 -57 -27 -121 -53 -201 -84 -616 -332 -775 -464
-28 -23 -85 -69 -126 -101 -41 -32 -87 -72 -102 -88 -15 -15 -32 -28 -38 -28
-5 0 -39 -28 -76 -62 -37 -35 -84 -79 -106 -100 -21 -20 -65 -63 -96 -96 l-58
-59 0 -1026 0 -1027 40 0 c31 0 40 -4 41 -17 5 -194 45 -551 79 -728 33 -164
69 -336 85 -395 8 -30 23 -91 34 -135 11 -44 34 -127 51 -185 18 -58 33 -109
35 -115 1 -5 4 -17 7 -25 3 -8 22 -67 43 -130 21 -63 41 -119 45 -125 4 -5 13
-32 20 -60 19 -71 146 -374 170 -407 11 -15 20 -31 20 -36 0 -5 -33 -37 -73
-73 -62 -55 -70 -66 -59 -79 7 -8 23 -31 35 -50 24 -37 125 -123 168 -142 l26
-12 7 -265 c3 -146 9 -312 13 -369 l6 -103 -84 6 c-89 7 -216 32 -224 45 -3 4
-5 190 -5 413 -1 391 -1 406 -21 431 -11 14 -25 25 -32 23 -6 -1 -30 32 -53
73 -23 41 -73 122 -110 179 -56 87 -131 229 -245 466 l-19 40 0 -455 0 -455
58 -55 c32 -30 68 -69 80 -86 l21 -31 -44 -65 c-84 -121 -115 -245 -91 -361 7
-32 6 -36 -8 -31 -14 5 -16 -9 -16 -129 0 -75 4 -138 9 -141 5 -4 40 -12 78
-20 37 -8 154 -34 258 -59 199 -48 276 -65 439 -97 54 -11 117 -24 140 -29 40
-9 130 -28 331 -71 55 -12 116 -25 135 -30 36 -9 137 -29 250 -50 36 -6 75
-17 87 -23 13 -6 26 -8 29 -5 3 3 21 2 41 -4 87 -24 431 -100 558 -123 50 -9
120 -23 157 -32 36 -8 71 -14 77 -12 7 3 -48 33 -121 68 -73 35 -155 75 -181
88 -26 13 -52 21 -57 18 -10 -6 -256 44 -370 75 -41 12 -124 34 -185 50 -60
16 -130 36 -155 45 -25 9 -112 36 -195 60 -82 24 -170 51 -195 60 -25 9 -65
22 -90 29 -167 48 -400 134 -400 148 0 20 235 1 265 -21 6 -4 39 -16 75 -25
36 -10 76 -22 90 -26 14 -5 50 -14 80 -21 55 -12 309 -84 430 -121 36 -12 110
-30 165 -40 55 -11 109 -24 120 -29 11 -4 47 -13 80 -20 61 -11 110 -29 220
-77 7 -3 7 -1 0 5 -5 6 -46 30 -90 53 -44 24 -102 58 -130 76 -27 18 -79 40
-115 49 -36 9 -85 22 -110 30 -25 8 -67 18 -95 24 -27 5 -102 21 -165 36 -63
14 -144 33 -179 41 -36 8 -67 17 -69 19 -5 5 -20 366 -21 508 -1 48 3 87 7 87
5 0 37 -24 72 -53 63 -52 63 -52 65 -107 1 -48 8 -67 55 -145 62 -102 199
-246 276 -291 27 -15 56 -33 64 -39 8 -7 23 -15 33 -18 15 -6 16 -4 5 16 -33
60 -95 135 -139 169 -46 36 -48 39 -45 83 3 61 -18 120 -68 185 -23 30 -54 73
-68 95 -15 22 -50 73 -78 114 -58 82 -75 124 -84 197 -3 27 -12 75 -20 107 -7
31 -11 57 -8 57 2 0 0 6 -6 13 -5 6 -17 39 -27 72 -23 81 -54 139 -114 214
-63 78 -117 120 -154 121 -19 0 -43 -12 -70 -35 -22 -19 -46 -35 -52 -35 -7 0
-20 -10 -31 -22 -19 -21 -19 -21 3 -16 25 7 59 -30 100 -107 11 -22 31 -58 44
-80 57 -98 88 -166 113 -245 31 -94 48 -130 82 -176 13 -17 24 -34 24 -37 0
-3 -53 21 -118 54 l-117 61 -32 75 c-18 42 -38 83 -46 92 -7 9 -29 41 -47 71
-19 30 -51 83 -72 117 -43 71 -49 116 -18 133 11 6 30 30 41 53 12 23 32 56
44 72 13 17 49 82 82 145 l59 115 -18 38 c-27 54 -110 381 -122 472 -1 12 -5
25 -9 31 -3 6 -9 33 -12 60 -4 27 -12 74 -20 104 -7 30 -13 62 -13 70 0 25
-31 241 -36 248 -7 13 -40 259 -61 467 -8 77 -19 167 -24 200 -5 33 -10 99
-10 148 l-1 87 198 0 199 0 12 -177 c7 -98 15 -216 17 -263 2 -47 9 -110 14
-140 5 -30 12 -77 15 -105 36 -355 46 -455 50 -480 3 -16 10 -68 15 -115 9
-81 44 -314 51 -335 2 -5 -5 -25 -15 -44 -20 -38 -22 -40 -69 -96 -67 -79 -80
-111 -78 -182 2 -50 -2 -70 -15 -84 -26 -29 -12 -23 52 21 153 104 138 87 146
174 4 43 12 93 17 110 6 17 13 53 17 81 5 37 29 86 92 193 74 124 98 155 179
232 87 82 106 111 84 124 -5 3 -12 27 -16 53 -4 27 -20 102 -37 168 -16 66
-33 143 -38 170 -5 28 -16 79 -24 115 -22 94 -54 286 -71 426 -8 67 -15 128
-17 135 -2 11 28 15 163 17 l165 2 11 -82 c12 -88 38 -190 108 -429 24 -80 49
-182 55 -228 l13 -83 -57 -55 c-31 -30 -70 -74 -85 -97 -16 -22 -53 -63 -83
-91 -30 -28 -69 -77 -86 -110 -31 -58 -75 -175 -67 -175 13 0 -40 -80 -72
-111 -30 -28 -45 -57 -70 -131 -32 -93 -42 -144 -25 -134 5 3 19 -6 31 -21
l23 -25 -48 -49 c-48 -48 -50 -64 -6 -33 13 9 24 14 26 13 23 -31 47 -88 61
-144 9 -38 18 -77 20 -85 3 -8 11 -40 20 -70 9 -30 23 -78 31 -107 16 -59 71
-166 118 -232 17 -24 44 -62 59 -85 30 -45 107 -195 107 -209 0 -5 8 -21 18
-35 22 -32 53 -126 77 -232 9 -41 22 -91 29 -110 8 -19 16 -55 20 -80 8 -57
32 -126 43 -123 5 1 10 -21 11 -48 1 -28 7 -59 12 -69 6 -10 11 -31 11 -47 l1
-28 8 30 c8 34 6 36 45 -75 14 -41 32 -88 40 -105 7 -16 17 -43 21 -60 4 -18
32 -54 68 -88 34 -32 60 -62 58 -68 -1 -5 5 -9 13 -9 8 0 49 -21 90 -47 40
-27 104 -66 140 -88 37 -22 81 -51 99 -65 18 -14 48 -36 66 -50 19 -14 45 -34
59 -46 l25 -21 -30 3 c-16 2 -87 8 -159 14 -147 13 -358 43 -455 65 -69 16
-236 46 -385 71 -49 8 -126 21 -170 29 -44 7 -100 17 -125 20 -25 4 -97 17
-160 30 -63 13 -140 26 -170 30 -72 9 -377 60 -505 86 -55 10 -138 26 -185 35
-47 9 -110 20 -140 26 -30 5 -64 14 -75 18 -11 5 -40 11 -65 14 -25 3 -56 8
-70 12 -14 3 -35 8 -47 11 l-23 5 0 -140 c0 -78 4 -143 9 -146 5 -3 98 -15
208 -26 109 -11 261 -27 338 -36 77 -8 158 -17 180 -19 269 -26 359 -36 630
-67 50 -5 97 -10 105 -10 16 0 145 -16 195 -23 17 -3 111 -12 210 -20 307 -26
288 -26 -405 -5 -179 5 -583 12 -897 15 l-573 6 0 -1296 c0 -1234 1 -1295 18
-1286 9 5 54 42 98 83 44 40 143 127 219 193 77 66 169 147 205 180 74 67 156
138 271 235 42 36 130 110 194 165 65 55 141 119 169 142 28 24 90 76 138 115
47 40 114 96 148 123 65 53 337 279 458 380 77 65 135 112 361 295 160 129
350 300 520 468 82 80 151 140 158 138 7 -3 13 -1 13 4 0 6 -4 10 -9 10 -16 0
-17 44 -1 61 8 9 32 37 54 63 21 26 40 46 42 43 2 -2 -10 -30 -27 -61 -28 -51
-29 -58 -13 -54 13 2 26 23 41 66 13 35 18 60 13 57 -14 -9 -12 2 7 38 10 18
18 48 18 67 1 39 25 133 32 126 2 -2 -1 -22 -8 -44 -6 -22 -9 -48 -5 -57 5
-15 10 -13 29 11 12 16 21 32 19 37 -1 4 2 17 8 28 9 16 39 141 56 229 54 286
69 469 85 1017 10 358 7 992 -6 1273 -3 52 -10 216 -15 363 l-11 268 23 19
c13 11 42 32 66 47 23 15 42 31 42 36 0 4 -5 5 -10 2 -6 -3 -10 -4 -10 -2 0 5
72 41 230 113 58 26 118 55 135 65 16 10 68 34 115 54 47 20 104 45 127 56 24
10 45 19 47 19 3 0 33 13 68 29 35 16 126 52 203 80 77 28 151 56 163 61 13 6
52 20 85 31 68 23 71 23 262 -10 66 -12 130 -21 143 -21 44 0 21 -16 -60 -42
-94 -29 -88 -19 -128 -198 -10 -47 -44 -186 -75 -310 -31 -124 -63 -252 -71
-285 -8 -33 -30 -123 -49 -200 -38 -151 -41 -164 -51 -210 -3 -16 -14 -59 -24
-95 -10 -36 -28 -101 -40 -145 -12 -44 -37 -127 -56 -184 -19 -57 -34 -110
-34 -118 0 -8 -7 -29 -15 -46 -14 -31 -69 -195 -175 -522 -29 -88 -58 -173
-66 -190 -14 -31 -94 -261 -94 -271 0 -3 52 47 115 112 63 65 115 123 115 128
0 6 15 42 34 81 19 38 53 111 77 160 83 178 119 251 139 285 22 38 54 109 95
210 14 36 32 79 40 95 7 17 16 41 20 55 4 14 11 30 15 35 10 12 74 191 177
495 8 25 21 59 29 76 7 17 25 68 39 115 15 46 33 99 41 117 8 18 14 39 14 47
0 9 8 34 19 58 10 23 48 134 85 247 37 113 76 223 87 245 20 41 47 126 56 180
10 54 12 55 194 55 103 0 170 -4 174 -10 4 -6 -19 -59 -51 -118 -31 -59 -75
-141 -97 -182 -54 -102 -48 -88 -122 -245 -37 -77 -78 -163 -91 -190 -13 -28
-24 -56 -24 -62 0 -7 -14 -36 -31 -65 -34 -57 -72 -138 -84 -178 -9 -27 -59
-138 -110 -242 -18 -36 -36 -77 -40 -90 -4 -13 -43 -96 -86 -186 -43 -89 -79
-166 -79 -170 0 -4 -19 -46 -41 -92 -23 -47 -42 -87 -42 -90 -1 -3 -5 -9 -9
-15 -11 -12 -67 -106 -121 -200 -22 -38 -54 -90 -72 -115 -18 -25 -58 -94 -89
-155 -65 -125 -72 -127 88 25 44 41 98 93 122 115 112 106 164 161 164 174 0
8 3 11 6 8 9 -9 43 18 144 114 47 45 112 106 145 138 33 31 96 90 140 132 44
42 122 110 172 152 89 74 180 157 345 313 42 40 89 80 105 88 15 8 39 31 53
50 14 19 41 45 59 58 19 12 67 52 107 88 120 108 227 198 269 226 22 14 61 46
86 69 25 23 83 70 130 105 46 34 93 72 104 85 12 12 55 41 96 65 40 24 92 61
115 81 23 20 52 42 65 49 13 7 47 32 74 54 28 23 83 64 124 91 109 74 114 77
161 115 54 44 178 122 252 157 49 24 55 31 46 46 -13 24 -2 35 15 16 6 -8 35
-33 62 -54 28 -22 56 -45 63 -52 7 -7 16 -13 20 -12 4 0 29 29 56 63 l49 64
171 -5 c94 -3 173 -7 175 -9 2 -1 -32 -38 -75 -81 -65 -64 -88 -96 -128 -177
-42 -86 -47 -101 -37 -123 7 -14 10 -27 9 -28 -2 -1 -23 -13 -48 -26 -25 -13
-74 -43 -109 -67 -35 -24 -80 -52 -100 -62 -20 -11 -74 -47 -121 -80 -47 -33
-116 -82 -155 -107 -38 -26 -100 -71 -136 -100 -36 -29 -70 -53 -74 -53 -5 0
-32 -19 -62 -42 -71 -56 -225 -171 -339 -252 -50 -36 -108 -81 -130 -101 -21
-21 -57 -48 -79 -62 -39 -25 -82 -58 -304 -235 -57 -46 -127 -100 -155 -121
-28 -21 -58 -46 -66 -56 -8 -9 -54 -45 -102 -79 -48 -35 -91 -70 -96 -78 -5
-8 -27 -28 -51 -43 -23 -15 -70 -51 -104 -80 -34 -28 -105 -85 -157 -127 -52
-41 -104 -83 -115 -92 -11 -10 -40 -34 -65 -53 -24 -18 -50 -38 -56 -44 -6 -5
-46 -37 -89 -70 -43 -33 -96 -77 -119 -98 -23 -21 -75 -65 -116 -97 -42 -31
-82 -65 -90 -75 -8 -10 -46 -41 -85 -70 -38 -29 -90 -71 -115 -95 -25 -23 -79
-69 -120 -101 -41 -33 -103 -83 -136 -112 -75 -63 -180 -150 -237 -195 -23
-18 -71 -58 -107 -87 -128 -107 -231 -191 -278 -223 -111 -80 -246 -200 -377
-337 -77 -81 -171 -173 -208 -206 -38 -32 -62 -59 -54 -59 8 0 25 8 38 19 13
10 47 30 74 44 28 14 82 51 120 84 39 32 82 66 96 75 15 9 51 38 82 65 30 26
95 75 143 108 98 65 260 180 369 260 39 28 149 109 245 179 96 71 191 142 210
158 19 15 60 45 90 65 30 20 80 57 110 83 30 26 78 62 105 80 28 18 75 54 105
80 30 25 86 68 124 96 37 27 91 67 120 90 28 22 67 51 86 64 19 13 67 49 105
80 39 31 90 71 115 89 137 98 342 256 364 280 11 11 23 21 29 21 11 0 94 60
159 115 26 22 76 60 112 85 36 25 65 48 66 53 0 4 24 23 53 43 71 47 112 78
161 118 23 18 66 49 96 69 30 19 64 44 75 54 22 21 259 201 360 273 34 25 84
63 111 85 27 22 69 54 94 70 25 16 61 43 81 61 19 17 67 52 105 77 38 26 88
61 111 79 180 141 518 378 595 417 26 14 29 13 65 -29 l38 -42 40 118 c21 66
67 193 102 284 36 91 70 181 78 200 l13 35 137 3 137 3 -7 -28 c-4 -15 -9 -39
-12 -53 -2 -14 -8 -41 -13 -60 -24 -95 -30 -122 -51 -210 -26 -117 -65 -246
-85 -283 -9 -15 -14 -35 -13 -45 1 -9 -1 -25 -6 -35 -4 -9 -18 -50 -30 -90
-21 -65 -26 -72 -47 -68 -22 3 -22 2 -5 -16 9 -11 17 -24 17 -30 0 -6 -39 -46
-87 -89 -49 -42 -98 -91 -110 -108 -13 -16 -39 -44 -59 -60 -20 -17 -64 -56
-96 -86 -33 -30 -85 -72 -116 -93 -32 -21 -77 -58 -102 -81 -25 -23 -65 -58
-90 -77 -25 -18 -83 -66 -130 -104 -47 -39 -101 -82 -120 -95 -19 -13 -56 -42
-81 -66 -25 -23 -63 -53 -85 -67 -21 -13 -73 -54 -114 -91 -41 -36 -79 -66
-85 -66 -5 0 -30 -19 -55 -42 -25 -23 -86 -74 -136 -113 -51 -38 -126 -97
-168 -130 -97 -77 -188 -148 -340 -268 -44 -34 -98 -75 -120 -91 -23 -16 -57
-43 -77 -60 -19 -17 -78 -64 -130 -104 -52 -40 -119 -92 -149 -117 -30 -24
-58 -44 -63 -45 -4 0 -35 -23 -70 -50 -111 -89 -311 -241 -367 -280 -30 -21
-64 -48 -75 -60 -11 -12 -54 -45 -95 -73 -41 -28 -97 -68 -125 -90 -131 -102
-305 -227 -387 -279 -153 -95 -158 -91 102 -84 195 6 227 9 238 24 12 16 14
16 26 -1 18 -24 110 -23 156 1 40 20 148 104 229 177 31 28 72 61 91 74 19 14
58 45 85 70 28 25 117 102 200 171 82 69 172 146 200 171 27 26 78 68 112 95
75 59 224 180 355 289 53 44 135 112 183 150 85 68 169 137 315 260 40 33 79
64 88 69 10 5 49 37 87 70 39 34 93 79 120 100 28 21 57 46 65 55 23 25 203
166 230 181 29 16 -164 -177 -306 -305 -85 -77 -320 -310 -458 -455 -60 -63
-194 -191 -386 -370 -91 -84 -205 -195 -255 -245 -346 -353 -531 -549 -538
-570 l-8 -24 -262 2 c-144 1 -269 -1 -277 -5 -8 -3 -25 -9 -37 -13 -13 -4 -23
-12 -23 -17 0 -6 -7 -8 -15 -4 -8 3 -15 1 -15 -4 0 -5 -9 -7 -19 -5 -11 2 -22
-3 -25 -10 -3 -8 -24 -19 -48 -25 -24 -6 -49 -13 -56 -15 -7 -3 -14 -5 -17 -5
-2 -1 -39 -19 -82 -41 -43 -21 -83 -39 -90 -39 -7 0 -16 -8 -22 -17 -5 -10
-13 -17 -18 -16 -10 3 -86 -19 -93 -27 -7 -7 -72 -32 -87 -33 -7 0 -13 -4 -13
-9 0 -5 -4 -6 -10 -3 -5 3 -10 1 -10 -5 0 -6 -12 -15 -27 -21 -16 -5 -35 -12
-43 -16 -8 -3 -22 -7 -31 -8 -10 -1 -25 -9 -34 -18 -9 -10 -21 -15 -26 -12 -5
4 -9 1 -9 -4 0 -6 -5 -11 -12 -11 -6 0 -20 -8 -31 -18 -11 -9 -17 -11 -13 -4
7 12 4 12 -15 1 -13 -7 -28 -12 -33 -11 -5 2 -19 -7 -32 -19 -12 -11 -27 -18
-32 -15 -5 3 -15 -1 -22 -9 -6 -8 -28 -19 -48 -26 -20 -6 -47 -18 -60 -26 -12
-7 -28 -11 -34 -7 -7 4 -8 3 -4 -4 5 -8 0 -12 -14 -12 -22 0 -60 -19 -72 -35
-5 -7 -8 -7 -8 0 0 6 -5 3 -10 -5 -6 -9 -10 -11 -10 -3 0 7 -7 10 -15 7 -13
-5 -13 -9 -3 -22 11 -13 10 -14 -8 -4 -17 9 -24 9 -34 -3 -7 -8 -16 -13 -20
-10 -4 3 -24 -7 -45 -20 -20 -14 -34 -21 -30 -15 3 5 2 10 -3 10 -6 0 -13 -8
-16 -17 -5 -13 -9 -14 -15 -5 -6 10 -14 10 -37 1 -16 -7 -35 -11 -43 -10 -7 1
-10 -2 -7 -8 4 -5 -2 -10 -11 -10 -29 1 -50 -6 -67 -20 -9 -7 -23 -11 -31 -7
-11 4 -14 2 -9 -6 5 -7 0 -9 -14 -6 -12 4 -22 2 -22 -2 0 -9 -42 -19 -88 -23
-15 -1 -21 -6 -17 -15 4 -11 -1 -13 -19 -10 -44 9 -40 -21 11 -79 27 -30 62
-71 78 -92 17 -20 66 -78 110 -127 44 -50 91 -103 104 -120 13 -16 45 -52 70
-80 25 -28 82 -93 126 -144 44 -51 109 -125 145 -164 36 -39 81 -91 100 -116
19 -25 51 -61 71 -80 19 -19 47 -51 61 -70 14 -19 43 -53 65 -75 21 -22 49
-53 61 -70 13 -16 49 -58 80 -92 31 -34 86 -96 122 -138 36 -43 90 -105 121
-139 31 -33 72 -80 90 -103 60 -74 139 -165 233 -267 50 -54 95 -105 99 -112
4 -8 40 -46 80 -85 71 -70 190 -149 277 -183 25 -10 52 -23 60 -30 8 -7 47
-25 85 -40 l70 -26 1615 0 1615 0 65 33 c113 58 258 144 355 211 52 37 97 66
100 66 3 0 33 22 68 50 34 27 112 89 172 136 124 98 167 135 278 242 l77 75 0
1088 0 1089 -123 0 -123 0 -23 157 c-13 87 -29 208 -37 268 -14 118 -40 300
-48 337 -3 13 -8 46 -11 73 -3 28 -12 95 -21 150 -8 55 -17 111 -19 125 -2 14
-14 95 -28 180 -14 85 -28 169 -30 185 -39 243 -98 462 -120 448 -7 -3 -29
-17 -49 -30 -32 -19 -36 -20 -31 -5 3 9 12 22 20 28 23 19 63 354 63 522 0 50
4 92 9 92 5 0 37 -11 72 -24 131 -49 104 -61 314 145 l185 182 0 209 0 209
-32 -23 c-18 -12 -65 -52 -104 -88 -39 -36 -124 -112 -190 -170 -65 -58 -132
-120 -149 -139 -16 -19 -54 -57 -84 -85 -86 -81 -144 -162 -135 -189 13 -41 5
-153 -21 -270 -14 -64 -25 -130 -25 -146 0 -16 -7 -42 -15 -57 -8 -16 -15 -37
-15 -48 0 -33 -50 -230 -67 -266 -9 -19 -26 -45 -36 -57 -14 -16 -18 -29 -12
-50 10 -42 13 -53 25 -118 7 -33 15 -69 20 -80 4 -11 13 -58 20 -105 6 -47 16
-101 21 -120 5 -19 16 -91 24 -160 8 -69 26 -224 40 -345 34 -289 52 -474 60
-618 l7 -117 -175 0 -174 0 -7 103 c-4 56 -11 140 -16 187 -5 47 -12 117 -16
155 -5 61 -17 160 -28 245 -1 14 -6 36 -9 50 -4 14 -9 43 -11 65 -8 77 -56
380 -67 420 -5 22 -14 66 -18 99 -7 51 -6 61 13 81 45 49 99 148 143 262 25
65 49 123 55 130 9 12 17 36 73 241 14 51 39 134 56 185 23 71 32 124 41 234
13 166 8 185 -59 241 l-45 36 23 19 c28 21 296 277 408 387 42 41 123 116 180
165 57 50 148 130 202 180 l99 90 0 198 0 198 -47 -37 c-27 -21 -80 -68 -119
-104 -39 -36 -117 -105 -175 -155 -107 -93 -164 -144 -365 -331 -65 -61 -144
-132 -174 -159 -30 -26 -66 -59 -80 -74 -14 -15 -43 -40 -65 -56 -22 -16 -62
-49 -89 -72 -26 -24 -54 -43 -61 -43 -8 0 -34 16 -60 36 -26 19 -50 34 -54 32
-11 -4 -135 -159 -150 -187 -7 -13 -30 -42 -51 -65 -20 -23 -69 -83 -108 -135
-39 -51 -91 -116 -116 -145 -126 -144 -172 -197 -228 -266 -33 -41 -79 -93
-101 -115 -22 -22 -57 -62 -77 -90 -21 -27 -47 -59 -60 -70 -12 -11 -45 -49
-73 -85 -27 -36 -69 -83 -91 -106 -23 -22 -55 -58 -73 -80 -17 -21 -44 -55
-59 -74 -16 -19 -34 -38 -40 -43 -7 -4 -37 -40 -67 -80 -30 -39 -69 -85 -87
-102 -18 -16 -50 -55 -73 -85 -22 -30 -52 -66 -66 -80 -14 -14 -38 -41 -54
-60 -15 -19 -40 -50 -55 -69 -15 -19 -38 -46 -52 -60 -14 -14 -38 -43 -54 -64
-26 -36 -65 -80 -250 -282 -181 -198 -237 -258 -349 -374 l-119 -123 -110 5
c-60 3 -112 8 -115 11 -5 4 30 43 187 211 83 89 212 229 276 300 45 50 124
136 175 193 52 57 110 123 129 147 65 80 192 230 233 275 50 54 152 176 222
264 28 34 61 74 74 87 13 13 50 59 81 101 63 84 167 210 245 297 28 31 72 86
99 123 26 38 52 68 57 68 4 0 13 10 20 21 9 17 8 23 -2 30 -11 6 8 30 71 92
81 80 229 256 272 325 11 17 23 32 28 32 4 0 20 19 35 43 15 23 58 80 95 127
76 96 145 222 136 245 -7 18 26 -3 100 -62 23 -18 45 -33 51 -33 10 0 112 74
122 88 4 4 35 30 71 57 59 45 269 227 296 257 7 7 49 45 95 83 46 39 105 91
132 118 26 26 72 65 100 86 29 21 81 66 116 100 36 34 69 61 73 61 5 0 37 26
72 58 150 134 146 132 230 132 l76 0 0 1295 c0 712 -2 1295 -5 1295 -18 0
-129 -84 -179 -135 -34 -35 -82 -80 -108 -101 -25 -22 -113 -100 -194 -174
-142 -130 -251 -228 -473 -423 -57 -51 -134 -119 -171 -152 -112 -101 -312
-279 -344 -305 -47 -40 -145 -127 -232 -206 -45 -41 -99 -87 -120 -103 -21
-16 -55 -45 -74 -66 -19 -20 -55 -51 -80 -68 -25 -17 -51 -39 -57 -48 -7 -9
-50 -48 -95 -85 -46 -37 -105 -89 -133 -115 -27 -26 -72 -65 -100 -87 -27 -22
-68 -59 -90 -82 -22 -23 -52 -50 -67 -59 -24 -16 -84 -64 -163 -135 l-30 -26
23 -18 c44 -33 152 -135 152 -144 0 -4 -17 -8 -37 -8 -49 0 -135 -40 -189 -88
-23 -20 -75 -58 -115 -85 -114 -73 -122 -78 -159 -114 -20 -18 -67 -52 -105
-75 -128 -78 -511 -378 -695 -544 -25 -22 -65 -54 -90 -71 -25 -17 -56 -43
-70 -58 -14 -15 -52 -48 -85 -73 -63 -48 -172 -141 -239 -205 -70 -66 -266
-250 -305 -285 -20 -19 -48 -38 -63 -44 -16 -5 -26 -14 -23 -19 6 -8 -153
-169 -227 -231 -21 -17 -38 -34 -38 -39 0 -4 -39 -48 -87 -98 -87 -89 -150
-164 -210 -251 -18 -25 -57 -72 -88 -105 l-56 -60 28 45 c15 25 36 56 48 70
12 14 28 34 36 44 13 18 13 19 -8 7 -19 -10 -22 -9 -17 4 4 8 17 18 30 21 25
6 114 98 114 117 0 10 -34 -15 -57 -43 -11 -13 -12 -12 -13 6 0 12 32 53 80
103 44 45 89 101 101 124 11 23 42 78 70 122 28 44 66 109 85 145 19 36 64
110 99 165 35 55 74 118 86 140 12 22 41 65 65 96 24 31 49 70 56 85 7 16 27
50 45 75 18 26 33 50 33 54 0 4 15 28 33 54 19 25 47 71 63 101 16 30 41 71
55 90 15 19 53 80 84 135 31 55 74 125 96 157 21 31 39 59 39 63 0 11 72 119
111 166 22 26 39 50 39 53 0 3 -181 7 -402 7 -222 1 -416 5 -433 9 l-30 7 30
12 c93 37 117 43 150 38 20 -3 33 -2 30 3 -3 5 7 5 24 0 16 -4 32 -6 34 -3 3
2 21 6 41 9 20 2 52 6 73 8 20 3 40 11 44 18 5 7 9 10 9 6 0 -4 9 0 19 9 11 9
18 19 16 22 -1 3 10 6 26 7 16 1 40 11 52 23 13 11 29 21 35 21 7 0 12 5 12
10 0 6 8 10 19 10 10 0 24 7 31 15 6 8 15 14 18 13 14 -3 42 15 36 23 -3 5 2
6 10 3 9 -3 16 -1 16 4 0 6 9 9 19 7 12 -2 18 1 15 8 -4 13 39 37 68 37 10 0
18 4 18 9 0 5 14 12 30 16 17 4 30 11 30 16 0 5 7 9 16 9 9 0 43 13 76 30 32
17 65 30 73 30 8 0 15 4 15 10 0 5 3 9 8 8 4 -1 30 8 57 21 74 34 156 61 166
55 5 -3 9 -1 9 4 0 10 37 25 54 23 4 -1 13 2 20 7 10 8 186 61 219 66 6 1 17
4 22 7 6 4 63 6 128 5 66 -1 123 1 128 4 8 6 -53 82 -165 205 -30 33 -67 76
-82 95 -15 19 -53 62 -83 96 -80 87 -190 218 -233 276 -20 28 -56 71 -81 97
-24 25 -48 53 -53 62 -5 9 -34 45 -66 80 -79 90 -177 205 -224 264 -37 47 -56
69 -112 132 -12 15 -41 49 -65 77 -23 28 -69 80 -102 116 -58 64 -129 147
-248 294 -57 70 -331 361 -396 420 -19 17 -50 47 -70 68 -86 86 -439 295 -608
358 -53 20 -72 20 -1507 20 -799 0 -1455 -2 -1458 -6z m1498 -2679 c-3 -8 -1
-15 4 -15 6 0 10 4 10 8 0 4 9 8 20 8 11 0 20 -4 20 -8 0 -4 5 -8 11 -8 5 0 7
4 4 10 -3 6 1 7 9 4 9 -3 16 -10 16 -15 0 -6 6 -4 14 3 8 7 12 16 9 20 -2 4 2
5 10 2 8 -3 14 -13 13 -22 0 -10 5 -16 14 -14 8 2 22 4 32 5 9 1 15 5 12 9 -3
4 -11 5 -19 1 -8 -3 -15 -3 -15 0 0 14 30 14 50 0 l22 -15 -49 -50 c-26 -28
-72 -68 -101 -89 -29 -22 -63 -57 -77 -79 -13 -21 -45 -55 -71 -74 -54 -42
-48 -47 51 -43 l70 2 3 -28 c4 -35 -46 -103 -107 -147 -22 -16 -48 -41 -57
-55 -18 -28 -42 -33 -50 -11 -4 11 -26 4 -102 -32 -53 -25 -121 -63 -149 -84
-30 -22 -53 -33 -53 -26 0 13 -13 23 -77 59 -30 17 -45 19 -106 12 -40 -4 -72
-12 -72 -18 0 -5 26 -13 58 -16 57 -6 76 -14 65 -24 -3 -3 -27 -1 -52 6 -26 6
-49 9 -52 7 -3 -3 4 -30 15 -59 15 -39 36 -68 78 -107 58 -52 58 -52 109 -46
55 6 71 -2 99 -56 19 -37 36 -171 23 -187 -7 -8 -1 -23 16 -46 14 -19 31 -48
37 -66 6 -18 13 -30 16 -27 3 2 -4 30 -16 60 -26 71 -12 73 22 4 19 -39 23
-54 14 -60 -8 -5 -6 -8 6 -8 29 0 30 26 3 80 -44 87 -31 120 21 53 44 -57 69
-105 77 -145 6 -32 4 -37 -15 -43 -23 -8 -35 0 -42 30 -4 19 -5 19 -6 -1 -2
-48 -72 -27 -86 25 -3 14 -17 38 -30 53 -14 16 -32 44 -41 63 -9 19 -34 54
-55 79 -21 24 -39 47 -39 50 0 4 -18 29 -40 57 -22 28 -40 55 -40 60 0 5 -30
41 -67 79 l-67 69 -38 -35 c-21 -18 -42 -34 -47 -34 -5 0 -17 44 -27 98 -21
120 -35 162 -78 226 -53 81 -80 135 -72 143 10 10 272 23 319 16 20 -3 37 -10
37 -15 0 -5 -4 -6 -10 -3 -23 14 -7 -13 26 -45 20 -18 44 -53 54 -75 10 -23
30 -52 45 -63 18 -14 22 -22 13 -22 -9 0 -21 -7 -28 -15 -16 -19 -8 -19 80 1
38 8 74 22 81 30 14 17 2 18 -36 4 -20 -8 -26 -7 -23 2 8 23 116 42 171 31 36
-7 50 -7 53 2 6 14 -22 82 -47 114 -10 13 -19 34 -19 47 0 23 -3 24 -64 24
-59 0 -64 -2 -59 -20 5 -18 0 -20 -57 -20 -45 0 -60 3 -57 13 2 6 0 20 -5 29
-6 13 -5 16 6 12 8 -3 17 0 22 7 4 8 3 10 -4 5 -7 -4 -12 -2 -12 3 0 6 5 11
11 11 5 0 7 4 4 10 -4 6 1 7 12 3 10 -3 15 -3 11 1 -8 9 14 36 24 30 4 -2 9 5
13 16 6 18 17 24 37 21 15 -2 58 62 53 79 -5 15 -2 17 17 12 21 -5 22 -4 8 14
-8 10 -10 16 -6 12 5 -4 16 -2 24 5 13 10 15 9 9 -5 -5 -15 -4 -16 13 -5 11 6
20 15 20 18 0 4 12 10 26 13 17 5 24 12 20 21 -3 9 0 12 8 9 8 -3 16 4 20 18
7 22 7 22 16 3 8 -19 9 -18 9 4 1 21 3 22 18 10 15 -12 16 -12 11 8 -4 17 -2
20 10 16 11 -5 14 -2 9 10 -5 13 -2 15 16 8 26 -9 57 -4 57 10 0 5 3 9 6 9 3
0 4 -7 0 -15z m-346 -230 c-7 -8 -17 -12 -23 -8 -6 4 -3 9 9 14 27 11 28 11
14 -6z m884 -153 c38 -10 71 -22 73 -28 2 -5 -11 -18 -29 -29 -18 -10 -84 -62
-147 -114 -141 -119 -252 -207 -311 -248 -25 -17 -76 -59 -115 -93 -38 -33
-81 -70 -95 -82 l-24 -20 -26 30 c-14 16 -41 39 -60 51 -19 12 -28 21 -20 20
28 -3 35 1 95 56 32 30 63 55 67 55 5 0 29 21 53 48 37 39 47 44 55 32 7 -12
11 -8 16 18 5 25 20 44 56 70 27 21 52 48 55 62 3 14 26 47 50 75 48 56 50 61
26 87 -15 17 -14 18 33 18 27 0 56 5 64 10 18 13 90 5 184 -18z m-1044 -12
c-8 -5 -24 -9 -35 -9 l-20 0 20 9 c11 5 27 9 35 9 13 1 13 0 0 -9z m6925 -29
c3 -5 -16 -26 -42 -47 -27 -21 -52 -43 -58 -49 -5 -6 -80 -68 -165 -138 -85
-69 -172 -141 -193 -159 -58 -49 -67 -53 -67 -26 0 25 31 145 49 191 6 15 8
27 5 27 -4 0 -2 6 4 13 22 26 82 148 82 167 0 18 9 20 133 23 72 1 158 4 189
5 31 1 59 -2 63 -7z m-5266 -64 l44 -14 -56 -31 c-31 -18 -127 -68 -214 -113
-143 -74 -209 -110 -268 -147 -11 -7 -44 -24 -74 -38 -55 -26 -83 -45 -150
-101 -71 -60 -136 -102 -245 -158 -60 -30 -111 -55 -113 -55 -2 0 15 23 38 50
23 28 40 53 36 56 -3 3 -12 -3 -19 -15 -7 -12 -18 -21 -25 -21 -7 0 -28 -13
-46 -30 -39 -34 -47 -36 -47 -15 0 8 -5 15 -10 15 -6 0 -4 -15 5 -37 25 -60 2
-205 -39 -234 -4 -4 -4 -15 2 -25 5 -11 12 -89 15 -174 4 -85 12 -261 19 -390
8 -153 12 -526 12 -1075 0 -945 -8 -1123 -63 -1499 -22 -153 -31 -166 -87
-140 -46 21 -55 33 -45 53 14 28 23 380 22 891 -1 272 -3 522 -5 555 -3 33 -7
195 -11 360 -8 401 -13 575 -25 790 -5 99 -10 257 -10 351 0 158 2 173 21 198
12 15 30 26 44 26 28 0 42 17 26 33 -16 16 -14 37 4 37 27 0 15 35 -18 51 -42
21 -56 85 -30 139 16 33 18 57 11 110 -2 19 1 25 17 25 13 0 19 -6 17 -17 -3
-21 15 -58 29 -58 16 0 97 63 110 87 6 12 17 19 24 17 7 -3 19 1 26 8 8 8 32
25 54 38 22 13 60 40 85 60 25 20 107 76 183 126 76 49 180 117 231 151 52 34
108 68 124 77 17 9 38 24 48 33 9 10 34 31 53 46 36 28 37 28 146 22 61 -3
130 -11 154 -18z m-1589 -117 c0 -5 -5 -10 -11 -10 -5 0 -7 5 -4 10 3 6 8 10
11 10 2 0 4 -4 4 -10z m254 -116 c-3 -109 -11 -134 -45 -134 -11 0 -19 -7 -19
-17 0 -9 -3 -13 -7 -10 -3 4 -12 2 -18 -3 -9 -8 -21 -3 -43 15 -16 14 -34 25
-40 25 -14 0 -28 21 -36 51 -6 29 -14 23 119 92 39 20 39 21 15 27 -25 6 -24
6 15 33 22 15 45 27 51 27 7 0 9 -35 8 -106z m-358 15 c6 -10 -11 -11 -44 -2
-16 4 -20 8 -12 13 14 9 48 2 56 -11z m-139 -194 c16 -8 41 -27 55 -42 15 -16
38 -36 52 -46 14 -10 26 -22 26 -27 0 -11 -67 -1 -95 14 -11 5 -23 9 -27 8 -4
-1 -27 4 -50 12 -24 8 -55 17 -69 20 -43 10 -50 56 -9 56 10 0 22 5 25 10 9
15 58 12 92 -5z m330 -2 c-4 -3 0 -11 9 -17 9 -7 13 -18 8 -30 -6 -15 -9 -13
-20 14 -17 39 -17 40 -2 40 6 0 8 -3 5 -7z m233 -103 c0 -5 -4 -10 -10 -10 -5
0 -10 5 -10 10 0 6 5 10 10 10 6 0 10 -4 10 -10z m-680 -25 c16 -8 34 -24 40
-36 10 -18 17 -19 81 -13 50 5 69 3 69 -5 0 -7 -6 -11 -12 -10 -7 1 -24 1 -38
0 -23 -1 -25 -4 -22 -39 3 -28 -1 -42 -16 -55 -16 -15 -18 -24 -11 -55 7 -32
5 -41 -15 -62 -37 -39 -43 -59 -51 -159 -5 -68 -12 -98 -25 -111 -12 -12 -19
-40 -23 -100 -5 -82 -6 -84 -43 -116 -34 -28 -37 -34 -25 -48 8 -9 12 -18 10
-20 -17 -14 -147 -86 -156 -86 -6 0 -13 21 -17 46 -5 41 -2 52 25 95 41 63 80
155 86 202 3 21 11 37 18 37 8 0 14 23 17 73 6 87 21 121 64 148 25 15 37 34
53 82 11 34 23 81 26 105 l7 43 -53 -7 c-29 -4 -64 -13 -78 -20 -38 -20 -46
-17 -47 19 0 17 -2 39 -5 47 -2 10 11 22 41 37 54 27 63 27 100 8z m315 -141
c15 -4 30 -20 40 -42 9 -21 20 -45 26 -54 14 -27 -16 -23 -35 4 -13 18 -16 19
-16 5 0 -24 -12 -22 -74 13 -49 28 -74 55 -62 68 9 8 71 20 84 16 8 -2 24 -7
37 -10z m-418 -44 c-6 -47 -54 -174 -79 -212 -10 -14 -18 -31 -18 -36 0 -6
-15 -30 -32 -54 -65 -86 -119 -216 -154 -368 -22 -93 -41 -121 -97 -140 -26
-9 -44 -19 -41 -23 4 -4 -5 -11 -19 -16 -27 -11 -41 -28 -42 -51 0 -11 -9 -14
-32 -12 -18 1 -33 -2 -33 -7 0 -14 -67 -53 -85 -49 -24 5 -1 29 31 33 39 4 69
46 94 130 35 116 50 148 94 195 26 27 50 67 60 97 9 28 32 73 51 99 19 27 38
63 41 81 3 17 19 43 35 57 26 23 29 33 29 85 0 50 5 66 33 107 18 28 49 57 73
69 22 12 52 29 65 38 32 23 32 23 26 -23z m517 -46 c3 -8 2 -12 -4 -9 -6 3
-10 10 -10 16 0 14 7 11 14 -7z m51 -88 c27 -41 41 -138 27 -189 -12 -44 -4
-46 38 -11 17 15 33 24 35 22 9 -9 -42 -48 -72 -57 -31 -9 -31 -9 -22 21 10
37 0 160 -15 170 -6 4 -26 8 -45 8 -41 0 -90 -34 -121 -85 -18 -29 -20 -41
-12 -64 7 -20 7 -32 -1 -40 -8 -8 -8 -11 1 -11 6 0 9 -7 5 -16 -3 -8 0 -26 7
-39 10 -19 10 -37 0 -88 -9 -47 -9 -88 -1 -158 5 -52 13 -173 16 -269 3 -96
10 -231 15 -300 5 -69 14 -228 20 -355 6 -126 13 -252 15 -280 5 -66 21 -342
40 -705 21 -413 35 -636 42 -699 l6 -55 -39 24 c-39 23 -94 75 -94 88 0 4 -9
81 -19 172 -11 91 -25 217 -30 280 -6 63 -13 131 -15 150 -5 32 -30 395 -41
590 -3 47 -8 101 -11 121 -3 20 -12 112 -20 205 -18 209 -39 436 -53 574 -6
58 -16 170 -21 250 -6 80 -13 159 -16 175 -3 17 -9 48 -13 70 -7 37 -4 43 28
75 27 26 39 49 47 90 8 34 8 59 3 66 -11 14 -1 221 12 246 9 17 32 20 203 32
37 3 71 8 74 11 8 8 10 7 27 -19z m6303 -350 c23 -16 42 -31 42 -34 0 -13
-140 -278 -191 -363 -32 -53 -62 -105 -65 -115 -4 -11 -24 -42 -44 -69 -20
-28 -45 -65 -54 -84 -27 -50 -181 -249 -277 -354 -30 -34 -68 -78 -85 -98 -16
-20 -76 -87 -133 -150 -57 -63 -120 -132 -140 -154 -20 -22 -79 -87 -131 -144
-52 -58 -106 -118 -120 -134 -14 -17 -54 -60 -88 -96 -35 -36 -76 -84 -92
-106 -15 -22 -45 -56 -66 -75 -22 -19 -52 -51 -67 -70 -16 -19 -65 -73 -110
-121 -45 -47 -154 -161 -242 -253 -88 -92 -173 -180 -190 -194 -16 -15 -50
-46 -76 -69 -41 -39 -51 -43 -95 -43 -27 1 -75 6 -106 13 l-57 12 132 131
c169 168 430 440 459 480 13 17 49 56 80 88 32 31 70 74 85 94 16 20 52 61 81
92 30 30 65 72 78 93 13 20 28 37 34 37 5 0 33 30 62 67 49 61 79 95 261 295
37 41 78 88 90 105 12 16 56 65 99 109 42 43 94 102 115 129 22 28 57 66 77
85 21 19 44 46 51 60 7 14 36 50 65 80 28 30 75 87 105 125 30 39 79 102 110
140 30 39 72 95 92 125 21 30 54 75 74 100 20 25 49 68 63 95 15 28 45 79 67
115 21 36 39 73 39 83 0 20 -1 20 68 -27z m83 -143 c-24 -126 -29 -178 -29
-278 0 -83 2 -93 9 -60 5 22 14 85 19 140 15 143 27 236 34 243 4 3 11 1 17
-5 18 -18 -30 -366 -62 -438 -4 -11 -24 -67 -43 -125 -34 -105 -105 -298 -131
-355 -7 -16 -32 -70 -54 -119 -23 -49 -41 -96 -41 -104 0 -24 -32 -133 -37
-128 -3 3 0 20 5 38 28 93 27 95 -24 37 -26 -30 -88 -94 -136 -144 -97 -99
-392 -414 -533 -570 -49 -54 -122 -131 -160 -170 -39 -38 -89 -90 -112 -115
-52 -56 -172 -168 -299 -280 -53 -47 -133 -120 -179 -162 -57 -55 -89 -78
-107 -78 -34 0 -141 21 -151 30 -5 4 35 50 88 101 201 196 647 643 820 824 99
103 209 217 245 254 82 83 258 274 296 321 16 19 51 60 80 91 50 56 160 215
202 294 25 47 132 318 132 335 0 7 9 44 21 83 11 40 27 97 35 127 8 30 19 63
24 72 5 9 20 67 32 127 20 97 24 109 37 96 13 -13 13 -24 2 -82z m-7096 -190
c3 -27 10 -64 15 -83 8 -34 29 -187 37 -280 2 -25 7 -52 10 -60 7 -17 7 -12
22 -135 7 -49 18 -119 26 -155 13 -59 28 -143 70 -400 8 -47 23 -137 34 -199
11 -63 18 -118 16 -121 -2 -3 0 -24 5 -46 5 -21 14 -84 20 -139 15 -140 27
-195 66 -313 20 -57 44 -141 54 -185 45 -194 54 -219 91 -237 36 -19 79 -60
62 -60 -6 0 -27 13 -48 30 -21 16 -57 40 -81 52 -24 12 -44 27 -44 34 0 6 -13
38 -29 70 -27 55 -44 108 -76 229 -26 96 -44 161 -68 245 -29 104 -60 222 -82
315 -47 195 -57 235 -74 300 -30 107 -76 287 -106 415 -15 63 -31 120 -36 125
-4 6 -12 35 -18 65 -5 30 -19 98 -30 150 -12 52 -28 133 -37 180 -8 46 -17 88
-20 92 -3 4 6 23 18 42 15 24 48 49 98 75 41 22 80 40 87 40 7 1 14 -19 18
-46z m-741 -57 c-9 -15 -19 -25 -21 -22 -3 2 3 16 13 30 9 15 19 25 21 22 3
-2 -3 -16 -13 -30z m7508 -1063 l-5 -67 26 17 c33 21 33 18 2 -41 -39 -74 -87
-122 -114 -115 -29 8 -42 -12 -35 -53 5 -26 0 -35 -31 -62 -19 -18 -40 -32
-45 -32 -16 0 -22 -43 -11 -85 5 -22 19 -76 31 -120 31 -117 48 -187 53 -215
3 -14 16 -72 30 -130 21 -87 55 -245 73 -335 12 -64 24 -130 24 -137 0 -4 -58
-8 -128 -8 l-128 0 -23 78 c-23 82 -34 111 -74 207 -14 33 -37 96 -51 140 -15
44 -30 87 -33 95 -10 25 -53 143 -65 177 -10 30 -13 32 -50 27 -21 -3 -38 -2
-38 3 0 5 33 39 73 75 107 97 227 217 272 272 22 28 49 59 60 70 39 40 95 113
95 124 0 6 11 23 24 39 22 26 40 64 60 126 11 33 14 16 8 -50z m-772 -938 c16
-42 109 -228 132 -265 12 -19 34 -61 49 -92 17 -35 38 -62 56 -72 27 -14 23
-15 -84 -18 -219 -5 -206 -6 -214 22 -4 14 -35 77 -71 140 -57 103 -66 115
-88 112 l-25 -4 30 30 c75 74 187 172 196 172 5 0 14 -11 19 -25z m-365 -326
c4 -12 20 -42 36 -67 16 -25 29 -50 29 -54 0 -4 -29 -8 -65 -8 -45 0 -65 -4
-65 -12 0 -10 -3 -9 -9 1 -10 16 -31 6 -31 -15 0 -8 -5 -14 -11 -14 -5 0 -7 5
-3 12 4 7 3 8 -5 4 -6 -4 -9 -12 -6 -17 4 -5 1 -9 -4 -9 -6 0 -10 -3 -10 -7 3
-21 -2 -32 -15 -27 -8 3 -17 0 -21 -5 -3 -6 -11 -9 -16 -6 -5 4 -9 0 -9 -7 0
-9 -3 -9 -10 2 -8 13 -10 12 -10 -3 0 -10 -3 -16 -7 -14 -10 6 -34 -19 -26
-27 4 -3 4 -6 2 -6 -3 0 -12 8 -21 19 -15 17 -14 20 7 45 12 14 26 26 31 26 5
1 20 16 34 34 14 18 59 62 100 97 41 35 77 67 78 72 7 14 21 7 27 -14z"/>
        <path d="M3170 7486 c0 -2 7 -7 16 -10 8 -3 12 -2 9 4 -6 10 -25 14 -25 6z"/>
        <path d="M2559 6833 c-13 -16 -12 -17 4 -4 16 13 21 21 13 21 -2 0 -10 -8 -17
-17z"/>
        <path d="M2697 6679 c7 -7 15 -10 18 -7 3 3 -2 9 -12 12 -14 6 -15 5 -6 -5z"/>
        <path d="M7385 2910 c-3 -5 -1 -10 4 -10 6 0 11 5 11 10 0 6 -2 10 -4 10 -3 0
-8 -4 -11 -10z"/>
        <path d="M6830 6959 c-41 -10 -89 -18 -106 -19 -65 0 -92 -11 -104 -41 -7 -16
-33 -48 -59 -71 -25 -24 -73 -74 -106 -113 -33 -38 -65 -74 -71 -80 -6 -5 -35
-39 -64 -75 -29 -36 -59 -69 -66 -75 -6 -5 -33 -37 -60 -70 -26 -33 -69 -83
-96 -112 -26 -28 -48 -58 -48 -65 0 -8 -16 -30 -36 -49 -56 -54 -160 -173
-147 -168 28 10 281 228 428 368 368 354 385 369 535 476 20 14 57 29 84 34
27 5 58 18 69 30 l21 21 -26 0 c-14 0 -28 7 -32 15 -7 19 -21 18 -116 -6z"/>
        <path d="M7590 6949 c-19 -12 -57 -40 -85 -63 -27 -23 -93 -71 -145 -106 -52
-35 -99 -69 -105 -75 -5 -7 -45 -37 -89 -66 -43 -30 -93 -65 -112 -79 -18 -14
-68 -51 -111 -83 -43 -31 -95 -70 -115 -85 -20 -15 -61 -42 -91 -60 -30 -18
-65 -44 -78 -59 -13 -14 -40 -36 -59 -49 -38 -26 -49 -35 -249 -194 -73 -58
-151 -120 -174 -138 -23 -18 -66 -56 -96 -85 -29 -29 -62 -57 -73 -63 -11 -6
-52 -42 -91 -80 -40 -39 -88 -81 -107 -94 -19 -14 -53 -43 -76 -65 -57 -57
-186 -171 -259 -230 -82 -66 -201 -171 -245 -216 -19 -20 -68 -62 -107 -94
-40 -31 -73 -61 -73 -65 0 -4 -16 -18 -35 -32 -19 -13 -56 -44 -82 -69 -27
-24 -97 -87 -158 -139 -60 -52 -132 -117 -160 -143 -27 -26 -70 -62 -94 -80
-24 -18 -60 -47 -80 -66 -20 -19 -54 -48 -76 -65 -22 -17 -101 -92 -176 -166
-218 -216 -359 -350 -368 -350 -19 0 -18 39 3 61 106 118 122 154 161 369 16
88 61 265 115 455 38 132 62 216 66 230 1 6 12 46 24 90 34 125 78 326 104
475 7 41 16 82 20 90 11 25 34 184 29 198 -3 7 0 18 6 26 6 7 9 21 5 29 -3 9
-1 31 5 49 5 18 15 83 21 143 5 61 12 121 15 135 3 14 12 104 20 200 9 96 18
189 21 205 3 17 7 54 9 83 1 28 6 77 10 108 l7 56 -34 -7 c-34 -6 -124 -31
-168 -45 -14 -5 -56 -18 -95 -29 -38 -12 -76 -25 -83 -30 -10 -6 -15 -89 -22
-347 -9 -339 -11 -374 -30 -664 -15 -221 -39 -476 -60 -630 -5 -41 -12 -95
-15 -120 -3 -25 -12 -90 -20 -145 -8 -55 -21 -152 -30 -215 -9 -63 -20 -119
-24 -125 -5 -5 -11 -35 -15 -65 -4 -30 -14 -86 -22 -125 -8 -38 -17 -97 -20
-130 -3 -33 -9 -78 -14 -100 -5 -22 -10 -61 -10 -86 0 -25 -3 -66 -6 -91 -6
-41 -11 -48 -58 -76 -72 -45 -94 -65 -98 -93 -2 -17 -10 -25 -28 -27 -14 -2
-33 -11 -44 -20 -11 -10 -6 3 12 32 17 27 38 70 47 96 14 43 42 184 50 257 2
18 11 66 20 107 8 42 15 90 15 108 0 18 7 60 14 93 8 33 18 98 21 145 4 47 10
90 15 95 4 6 10 46 14 90 3 44 16 206 28 360 20 250 22 349 23 917 0 350 -3
639 -7 643 -3 3 -14 2 -25 -4 -10 -6 -51 -24 -91 -40 -40 -17 -104 -51 -142
-75 l-70 -46 7 -232 c10 -289 10 -1308 1 -1518 -10 -245 -49 -743 -59 -765 -5
-11 -11 -71 -14 -133 -2 -66 -10 -126 -19 -145 -8 -17 -17 -58 -20 -90 -4 -32
-13 -72 -21 -87 -8 -16 -15 -39 -15 -52 0 -30 -34 -83 -93 -148 -26 -29 -46
-58 -43 -65 2 -7 -3 -15 -12 -17 -16 -5 -114 -185 -127 -235 -9 -34 9 -28 28
10 39 74 92 129 182 189 22 15 119 105 215 199 96 94 191 183 210 198 19 14
41 34 48 44 7 9 28 25 47 35 18 9 77 58 131 108 88 81 169 153 273 241 18 15
67 60 110 99 103 97 231 210 299 264 31 25 72 61 92 80 19 19 58 53 85 75 46
37 206 171 315 264 76 65 167 140 349 290 97 79 178 146 181 150 3 4 55 47
115 96 61 49 126 104 145 121 19 18 60 51 90 75 30 23 58 48 63 55 4 7 38 35
75 62 38 27 92 72 121 98 29 27 69 59 88 71 20 12 39 25 42 30 10 13 102 87
151 120 25 17 68 51 95 75 28 24 75 61 105 81 30 21 83 59 117 85 126 97 210
158 368 266 39 26 81 58 95 71 35 32 298 202 406 264 49 28 100 51 113 51 19
0 12 11 -46 71 -56 57 -135 119 -154 119 -2 0 -20 -10 -39 -21z m-3774 -3221
c-17 -10 -16 -11 8 -28 31 -20 22 -32 -35 -48 -65 -18 -71 3 -14 53 27 24 52
41 55 39 3 -3 -3 -10 -14 -16z m-302 -193 c6 -18 -16 -31 -69 -40 l-40 -7 40
31 c45 34 60 38 69 16z"/>
        <path d="M6288 6912 c-57 -2 -68 -6 -68 -20 0 -26 -57 -108 -386 -561 -39 -53
-73 -101 -75 -107 -8 -19 -180 -267 -264 -380 -27 -37 -95 -124 -150 -193 -55
-69 -109 -140 -119 -156 -19 -30 -19 -30 0 -13 10 9 32 21 47 27 37 14 131 90
150 121 9 14 48 59 87 100 40 41 85 94 102 118 16 23 33 42 38 42 4 0 25 24
46 53 21 28 67 88 103 132 36 44 88 116 117 160 29 44 62 89 75 100 12 11 38
45 57 75 19 30 54 78 77 105 23 28 46 57 51 67 10 18 131 168 211 261 29 34
50 63 48 65 -6 6 -69 8 -147 4z"/>
        <path d="M8129 6357 c-48 -34 -129 -92 -180 -129 -52 -37 -128 -92 -169 -123
-41 -31 -103 -77 -138 -103 -35 -26 -94 -69 -131 -97 -38 -27 -89 -66 -113
-85 -25 -19 -95 -72 -157 -118 -61 -46 -111 -87 -111 -91 0 -4 -19 -18 -42
-31 -24 -13 -70 -46 -102 -74 -33 -28 -79 -64 -103 -81 -42 -29 -247 -184
-390 -294 -39 -31 -85 -65 -102 -76 -16 -11 -91 -67 -166 -125 -75 -58 -173
-130 -217 -161 -44 -31 -94 -70 -111 -87 -18 -16 -51 -42 -75 -56 -23 -15 -50
-33 -60 -41 -30 -26 -249 -188 -329 -245 -94 -65 -260 -186 -328 -237 -27 -21
-88 -65 -135 -97 -47 -32 -114 -82 -150 -111 -36 -29 -99 -75 -140 -104 -41
-28 -113 -79 -160 -113 -135 -98 -214 -152 -390 -268 -91 -60 -187 -126 -215
-145 -99 -71 -151 -105 -210 -139 -33 -20 -71 -46 -85 -58 -14 -13 -46 -34
-72 -48 -26 -13 -45 -26 -43 -28 2 -2 48 10 102 27 155 48 406 104 563 126 53
7 95 22 130 46 14 9 54 36 89 59 36 24 70 47 75 52 6 5 51 37 99 71 49 34 114
80 145 102 83 59 383 284 412 309 14 11 36 27 50 35 14 8 54 37 90 65 36 29
79 60 95 70 17 11 81 58 143 105 62 47 144 109 182 136 37 28 90 66 116 85 25
19 121 90 213 157 219 162 240 177 332 251 43 34 82 62 86 62 5 0 31 18 58 40
28 22 86 69 130 105 92 74 176 138 274 210 38 28 92 68 120 90 100 79 155 121
236 180 44 33 112 85 149 115 38 30 97 76 132 101 36 25 70 53 77 61 6 8 34
30 62 49 27 19 89 64 137 102 48 37 90 67 94 67 3 0 52 35 108 78 148 113 157
119 206 154 25 17 48 37 53 44 4 7 39 34 77 59 39 26 70 48 70 51 0 2 -18 20
-40 40 -22 20 -40 43 -40 51 0 8 -4 12 -9 9 -5 -3 -26 10 -47 29 -21 19 -43
35 -48 35 -6 -1 -50 -29 -97 -63z"/>
        <path d="M9992 5463 c-15 -3 -34 -21 -49 -46 -156 -263 -149 -242 -114 -330
44 -113 132 -533 176 -850 14 -100 28 -186 30 -192 2 -5 4 313 4 708 1 568 -2
717 -11 716 -7 -1 -24 -4 -36 -6z"/>
        <path d="M9555 5210 c0 -138 4 -230 9 -230 11 0 101 93 124 128 11 16 15 59
18 157 1 75 6 144 9 155 6 19 1 20 -77 20 l-83 0 0 -230z"/>
        <path d="M1155 5124 c-46 -32 -134 -120 -135 -135 0 -4 8 -10 18 -13 63 -23
159 -103 197 -165 19 -32 35 -61 35 -65 0 -3 16 -38 36 -78 19 -40 46 -107 60
-148 13 -41 26 -79 28 -85 2 -5 4 -12 4 -15 3 -29 79 -181 101 -204 28 -29 69
-105 140 -258 32 -68 44 -105 77 -218 17 -61 42 -102 114 -192 17 -20 30 -41
30 -45 0 -17 55 -61 102 -83 26 -12 52 -28 59 -36 18 -22 30 -16 23 12 -4 15
-36 83 -71 153 -35 69 -77 169 -93 222 -17 55 -38 103 -49 110 -25 19 -111
300 -111 365 0 13 -4 32 -9 42 -5 9 -14 35 -20 57 -15 54 -141 228 -227 312
-113 111 -222 317 -240 451 -4 28 -9 52 -13 51 -3 0 -28 -16 -56 -35z"/>
        <path d="M470 4570 c0 -5 5 -10 10 -10 6 0 10 5 10 10 0 6 -4 10 -10 10 -5 0
-10 -4 -10 -10z"/>
    </g>
</svg>
