<?xml version="1.0" standalone="no"?>
<!DOCTYPE svg PUBLIC "-//W3C//DTD SVG 20010904//EN"
        "http://www.w3.org/TR/2001/REC-SVG-20010904/DTD/svg10.dtd">
<svg version="1.0" xmlns="http://www.w3.org/2000/svg"
     width="202.000000pt" height="196.000000pt" viewBox="0 0 202.000000 196.000000"
     preserveAspectRatio="xMidYMid meet">

    <g transform="translate(0.000000,196.000000) scale(0.100000,-0.100000)"
       fill="#000000" stroke="none">
        <path d="M895 1906 c-494 -77 -842 -524 -793 -1018 19 -198 97 -384 218 -522
l29 -33 -33 -89 c-46 -120 -37 -137 57 -114 23 6 209 44 412 86 410 83 431 91
487 172 31 44 33 52 33 132 0 83 -1 87 -42 153 l-42 67 9 73 c5 39 10 75 10
80 0 4 17 7 38 7 46 0 99 31 112 66 6 14 10 41 10 61 0 46 -54 103 -98 103
l-30 0 -4 93 c-5 107 -24 154 -93 222 -78 79 -109 89 -277 93 -82 2 -148 7
-148 11 0 13 76 85 120 113 53 34 166 71 266 88 60 9 87 9 164 -5 51 -8 111
-23 133 -33 l40 -17 -121 -80 c-67 -44 -124 -86 -126 -92 -10 -25 6 -45 33
-41 42 7 321 197 321 219 0 25 -34 45 -133 79 -120 42 -219 52 -331 34 -163
-25 -267 -70 -363 -158 -56 -51 -107 -134 -97 -159 8 -22 29 -25 196 -26 129
-2 159 -5 198 -22 92 -41 150 -129 150 -227 0 -67 -29 -340 -39 -366 -6 -15
-9 -13 -26 18 -19 34 -19 39 -2 173 28 220 23 254 -47 325 -48 49 -90 59 -242
56 l-126 -3 -65 -145 c-210 -471 -208 -465 -144 -472 l29 -3 -77 -191 c-42
-106 -80 -193 -86 -195 -17 -5 -113 149 -146 234 -45 119 -62 207 -61 332 1
359 225 678 567 808 66 25 203 53 290 59 43 3 58 26 35 53 -15 18 -55 18 -165
1z m115 -561 c15 -8 38 -31 50 -51 21 -33 22 -44 16 -122 -3 -48 -11 -122 -17
-164 l-11 -78 -68 0 c-37 0 -95 3 -128 6 -56 6 -62 9 -71 35 -7 22 -16 29 -36
29 -34 0 -41 -21 -22 -69 9 -21 13 -41 10 -45 -4 -3 -44 -6 -91 -6 -75 0 -84
2 -80 18 3 9 49 117 104 240 l98 222 109 0 c76 0 117 -4 137 -15z m308 -297
c7 -7 12 -21 12 -33 0 -29 -19 -45 -52 -45 -30 0 -35 17 -22 68 7 24 42 30 62
10z m-252 -202 c28 -29 166 -258 175 -290 8 -29 7 -48 -6 -85 -31 -93 -59
-106 -350 -165 -126 -26 -292 -59 -367 -74 -76 -16 -138 -25 -138 -21 0 6 34
94 177 457 l57 142 69 0 c64 0 71 2 96 29 l26 29 125 -5 c74 -3 129 -10 136
-17z"/>
        <path d="M823 1230 c-19 -8 -43 -38 -43 -54 0 -3 34 -6 75 -6 67 0 79 3 100
25 14 13 25 29 25 35 0 12 -125 13 -157 0z"/>
        <path d="M1515 1580 c-219 -141 -227 -147 -223 -173 6 -45 41 -31 227 90 162
105 181 121 179 143 -2 16 -10 26 -23 27 -11 2 -81 -37 -160 -87z"/>
        <path d="M1712 1578 c-18 -18 -15 -37 13 -70 41 -49 101 -158 128 -235 95
-265 64 -535 -88 -768 -197 -302 -551 -452 -902 -383 -80 16 -96 12 -91 -23 5
-41 60 -53 258 -53 152 -1 185 2 251 21 379 110 643 420 690 809 26 222 -44
482 -179 659 -40 53 -60 63 -80 43z"/>
    </g>
</svg>
